<?xml version="1.0" standalone="no"?>
<!DOCTYPE svg PUBLIC "-//W3C//DTD SVG 20010904//EN"
 "http://www.w3.org/TR/2001/REC-SVG-20010904/DTD/svg10.dtd">
<svg version="1.0" xmlns="http://www.w3.org/2000/svg"
 width="1088.000000pt" height="1280.000000pt" viewBox="0 0 1088.000000 1280.000000"
 preserveAspectRatio="xMidYMid meet">
<metadata>
Created by potrace 1.15, written by Peter Selinger 2001-2017
</metadata>
<g transform="translate(0.000000,1280.000000) scale(0.100000,-0.100000)"
fill="#000000" stroke="none">
<path d="M1305 12425 c-253 -44 -508 -175 -675 -344 -135 -136 -196 -263 -207
-427 -7 -105 11 -208 41 -232 12 -9 34 -42 50 -72 15 -30 52 -86 81 -125 78
-104 88 -127 83 -201 -3 -54 -9 -69 -33 -95 -59 -63 -148 -77 -225 -36 -45 24
-80 74 -80 115 0 35 30 79 62 93 33 14 39 49 8 49 -33 0 -90 -60 -100 -105 -6
-24 -10 -565 -9 -1319 0 -703 -3 -1281 -6 -1284 -14 -14 -3 -51 16 -57 32 -11
56 18 41 47 -9 16 -12 69 -10 173 l3 150 27 -46 c106 -181 375 -208 449 -45
47 103 -1 196 -99 196 -37 0 -50 -6 -78 -34 -43 -43 -45 -83 -8 -123 l26 -28
-21 29 c-36 49 -21 104 36 131 42 20 82 13 114 -21 31 -33 32 -111 3 -151 -51
-68 -120 -91 -208 -68 -145 38 -226 154 -234 336 -5 112 11 187 64 298 54 115
115 194 269 347 l142 140 104 0 c114 0 163 15 227 69 64 54 110 175 96 251 -6
31 -1 40 51 99 l57 65 68 0 c94 0 161 15 248 57 88 41 189 137 245 229 48 79
93 217 108 329 21 161 -5 408 -61 569 -11 33 -20 65 -20 71 0 7 20 20 45 30
60 22 134 96 168 166 l28 55 87 -14 c111 -18 351 -11 437 13 145 40 272 133
311 229 l19 46 718 0 c526 0 722 -3 736 -12 26 -16 51 -3 51 27 0 30 -25 43
-51 27 -14 -9 -209 -12 -731 -12 l-713 0 -1 73 c-1 112 -49 196 -138 245 -48
26 -198 24 -251 -5 -47 -25 -86 -65 -110 -112 -19 -37 -25 -128 -12 -173 l7
-28 -175 0 c-158 0 -176 2 -181 18 -3 9 -21 49 -40 88 -66 138 -217 248 -404
294 -112 28 -332 35 -445 15z m355 -65 c157 -25 297 -93 375 -182 34 -39 95
-143 95 -162 0 -3 -43 -6 -95 -6 l-95 0 -14 34 c-41 99 -180 135 -293 77 -55
-27 -139 -122 -149 -166 -17 -75 -24 -135 -20 -169 l6 -41 -19 50 c-30 81 -57
128 -104 181 -173 190 -482 191 -686 0 l-45 -41 31 40 c133 174 383 319 643
375 96 21 270 25 370 10z m1206 -55 c49 -14 99 -56 122 -101 20 -38 33 -117
27 -156 l-7 -38 -53 0 -52 0 -6 46 c-7 65 -42 99 -102 99 -34 0 -50 -6 -67
-25 l-23 -24 23 19 c34 28 94 26 126 -4 20 -19 26 -34 26 -67 l0 -43 -149 0
-149 0 -11 31 c-18 50 -13 100 15 156 50 101 160 143 280 107z m-1015 -190
c38 -20 68 -62 75 -104 l6 -36 102 3 103 3 7 -32 c8 -40 8 -127 0 -156 -4 -13
-12 -23 -20 -23 -62 0 -583 201 -592 228 -7 22 93 110 144 126 55 17 131 13
175 -9z m-700 -81 c145 -52 237 -188 262 -387 21 -163 -17 -301 -118 -435 -55
-73 -135 -143 -278 -243 -151 -106 -204 -147 -274 -213 -208 -193 -289 -426
-232 -665 29 -118 115 -243 216 -312 l44 -31 -130 -134 c-143 -147 -216 -243
-267 -349 l-33 -70 -1 858 0 859 30 -26 c76 -63 201 -60 277 7 45 40 63 82 63
149 0 64 -21 113 -85 199 -65 89 -96 152 -94 197 0 20 -2 64 -5 97 l-6 60 14
-61 c30 -129 101 -224 205 -273 47 -22 70 -26 146 -26 75 0 98 4 139 24 185
91 238 335 98 451 -47 39 -131 64 -180 55 -93 -17 -153 -97 -132 -174 6 -22
22 -49 37 -60 31 -25 91 -28 119 -5 18 15 18 15 -3 5 -68 -33 -143 13 -143 89
0 34 6 48 33 75 90 90 249 49 302 -77 69 -168 -98 -365 -293 -345 -149 16
-259 131 -282 298 -18 129 37 289 128 370 53 47 147 95 213 109 60 12 172 5
230 -16z m517 -139 c117 -64 263 -124 371 -151 40 -11 76 -24 78 -31 6 -15
-21 -65 -59 -109 -24 -28 -112 -84 -131 -84 -2 0 -30 43 -63 96 -70 115 -180
231 -279 293 -39 25 -72 46 -74 47 -1 2 0 8 4 14 5 8 13 7 29 -4 13 -8 68 -40
124 -71z m938 56 c31 -28 88 -51 124 -51 36 0 93 23 124 51 29 25 42 29 90 29
31 0 56 -3 56 -7 0 -3 -14 -28 -31 -54 -81 -127 -255 -194 -499 -192 -100 0
-263 17 -265 26 0 1 1 53 3 115 l3 112 181 0 180 0 34 -29z m244 21 c0 -12
-51 -39 -87 -46 -38 -9 -99 7 -133 34 l-25 20 123 0 c67 0 122 -4 122 -8z
m-1280 -67 c78 -58 191 -185 248 -280 28 -49 52 -95 52 -103 0 -21 -139 -7
-201 19 -93 40 -165 144 -176 254 -7 63 4 145 19 145 6 0 32 -16 58 -35z m6
-463 c48 -232 43 -486 -16 -717 -36 -146 -78 -244 -152 -355 l-60 -92 -39 5
c-63 8 -165 62 -217 114 -140 141 -147 370 -13 454 130 83 261 52 280 -66 7
-41 9 -44 10 -17 3 91 -68 148 -174 140 -76 -7 -131 -34 -182 -92 -102 -115
-91 -320 24 -456 37 -45 134 -106 200 -127 l53 -17 -32 -33 -32 -33 -29 35
c-41 50 -95 75 -163 75 -63 0 -118 -22 -140 -55 -40 -61 -35 -137 13 -175 44
-34 110 -23 134 23 l11 22 -21 -22 c-47 -49 -111 -38 -137 23 -19 46 -5 93 39
130 28 24 37 26 99 22 72 -4 104 -20 142 -71 16 -21 18 -32 10 -45 -6 -9 -88
-85 -183 -169 l-173 -152 -41 20 c-99 51 -193 191 -218 324 -24 127 6 279 79
400 46 77 194 223 302 299 343 240 439 340 504 526 25 73 30 100 30 195 1 61
-2 124 -7 140 -4 17 11 -7 34 -53 29 -59 48 -118 65 -200z m129 40 c28 -12 83
-26 124 -30 l74 -7 18 -52 c42 -123 54 -212 54 -403 0 -213 -11 -270 -77 -410
-32 -67 -57 -101 -117 -161 -101 -100 -203 -148 -318 -149 l-41 0 45 67 c87
130 135 247 175 431 18 79 22 130 22 277 0 190 -16 302 -64 439 -11 33 -20 61
-20 63 0 2 17 -7 38 -20 20 -12 60 -33 87 -45z m-516 -1571 c-39 -92 -127
-145 -231 -139 l-56 3 124 105 c69 58 137 118 152 133 l27 29 3 -41 c2 -25 -5
-59 -19 -90z"/>
<path d="M1899 11913 c-13 -16 -12 -17 4 -4 9 7 17 15 17 17 0 8 -8 3 -21 -13z"/>
<path d="M1336 10702 l-19 -27 24 22 c12 12 21 24 18 27 -2 2 -13 -8 -23 -22z"/>
<path d="M9148 12424 c-238 -43 -416 -174 -483 -356 l-18 -48 -179 0 -179 0
12 21 c21 39 7 141 -27 195 -45 73 -108 108 -202 113 -93 4 -142 -10 -193 -56
-59 -53 -81 -104 -87 -196 l-5 -78 -746 1 c-728 2 -746 1 -749 -18 -4 -28 25
-49 49 -34 14 9 199 12 738 12 l719 0 26 -55 c49 -100 171 -185 317 -220 123
-30 366 -30 494 1 16 4 24 -4 39 -41 26 -65 97 -139 164 -171 31 -15 58 -28
59 -29 2 -1 -8 -35 -22 -75 -128 -377 -79 -783 121 -999 113 -122 230 -179
392 -188 l93 -6 54 -56 55 -56 0 -66 c0 -36 7 -86 16 -112 19 -56 83 -131 134
-157 58 -30 156 -45 214 -32 l49 10 139 -136 c76 -75 163 -168 193 -206 120
-158 180 -346 156 -494 -28 -182 -128 -290 -277 -300 -109 -7 -174 43 -182
144 -4 49 -2 56 27 85 29 28 36 31 74 26 78 -11 113 -91 65 -146 l-23 -26 28
24 c53 47 26 139 -47 160 -47 12 -82 3 -115 -30 -60 -59 -45 -158 33 -227 41
-36 86 -47 165 -39 94 8 179 62 233 147 l29 45 -2 -177 c-2 -114 1 -182 7
-188 23 -23 65 19 44 45 -6 8 -11 462 -12 1323 -3 1308 -3 1311 -24 1339 -27
37 -85 67 -96 50 -13 -20 -9 -37 8 -37 8 0 29 -13 45 -29 33 -34 39 -83 14
-131 -39 -76 -172 -101 -252 -48 -67 44 -90 124 -59 210 7 20 36 65 63 100 28
35 65 90 83 123 18 33 43 71 56 85 32 35 46 101 46 205 -1 170 -68 319 -207
460 -159 160 -398 285 -644 335 -117 24 -305 26 -423 4z m412 -73 c275 -62
523 -212 653 -396 13 -18 1 -10 -29 20 -159 159 -422 192 -604 75 -80 -51
-146 -137 -180 -234 l-19 -51 0 53 c-1 57 -18 141 -32 156 -5 5 -3 16 3 23 7
9 7 13 1 11 -6 -2 -29 18 -52 44 -96 109 -257 133 -343 51 -14 -14 -32 -38
-38 -54 l-12 -29 -94 0 c-58 0 -94 4 -94 10 0 16 35 80 69 128 65 88 201 165
351 197 99 21 317 19 420 -4z m-1429 -42 c85 -26 149 -110 149 -196 0 -98 9
-93 -166 -93 l-154 0 0 36 c0 26 8 43 29 65 34 33 66 37 114 13 30 -15 31 -15
16 1 -10 9 -37 20 -62 22 -41 5 -49 2 -77 -25 -24 -24 -30 -39 -30 -71 l0 -41
-60 0 -60 0 0 56 c0 82 19 133 65 179 60 60 148 80 236 54z m1063 -194 c42
-20 118 -95 114 -113 -8 -36 -582 -252 -605 -228 -9 9 -8 180 1 194 5 8 42 12
112 12 l104 0 0 25 c0 30 22 76 44 94 50 42 159 49 230 16z m751 -70 c250 -66
386 -325 295 -566 -90 -243 -410 -278 -534 -59 -26 46 -31 66 -31 122 0 58 4
72 30 110 55 77 156 115 228 84 59 -24 87 -61 87 -113 0 -81 -76 -128 -140
-87 l-25 16 24 -21 c45 -40 115 -21 146 39 33 63 5 134 -70 178 -86 50 -219 6
-280 -92 -27 -44 -30 -58 -30 -125 0 -59 5 -85 23 -119 35 -66 88 -119 150
-149 49 -24 69 -28 142 -28 65 1 96 6 133 23 133 60 205 168 227 340 9 66 9
66 3 -13 -3 -44 -6 -102 -7 -130 -3 -59 -36 -130 -107 -226 -77 -105 -97 -187
-64 -266 20 -48 41 -71 85 -93 79 -40 181 -33 241 17 l29 25 0 -852 0 -851
-40 77 c-56 109 -136 210 -273 347 -66 65 -117 120 -115 122 1 1 18 10 36 19
49 25 135 118 169 183 55 105 68 157 68 283 0 134 -21 215 -82 318 -81 137
-179 231 -416 398 -233 165 -336 274 -387 411 -61 163 -37 391 55 530 88 132
261 192 430 148z m-1959 -86 c63 -69 195 -69 258 0 18 20 29 21 205 21 l186 0
0 -114 0 -114 -73 -11 c-107 -16 -300 -14 -389 5 -137 28 -233 83 -294 168
-43 58 -39 66 29 66 47 0 63 -4 78 -21z m244 17 c0 -2 -16 -14 -36 -26 -43
-27 -116 -30 -162 -6 -59 31 -48 36 77 36 67 0 121 -2 121 -4z m1110 -40 c18
-67 9 -191 -18 -247 -27 -55 -83 -114 -135 -141 -38 -19 -201 -47 -213 -36 -3
3 7 30 22 60 63 125 164 247 273 329 78 60 67 65 -15 8 -119 -83 -211 -182
-280 -299 -24 -40 -45 -78 -46 -82 -6 -16 -79 22 -125 64 -47 44 -88 112 -78
128 3 6 14 10 23 10 9 0 71 18 137 41 118 39 282 116 380 177 28 17 53 32 56
32 4 0 12 -20 19 -44z m25 -374 c1 -136 3 -152 28 -216 59 -150 162 -266 362
-410 274 -197 356 -271 431 -387 136 -209 126 -475 -25 -651 -37 -43 -115 -98
-139 -98 -7 0 -79 57 -159 128 -79 70 -161 141 -180 158 l-36 32 19 33 c77
131 294 103 294 -38 0 -51 -49 -98 -92 -89 -18 3 -39 12 -48 19 -9 6 -5 2 8
-10 66 -64 173 24 148 122 -11 44 -62 92 -112 104 -78 20 -147 0 -205 -60
l-48 -49 -25 33 -26 32 23 9 c147 58 230 124 279 224 31 62 33 73 33 167 -1
84 -4 108 -24 147 -27 55 -77 102 -135 129 -50 23 -146 25 -186 4 -33 -17 -70
-61 -70 -84 0 -9 8 0 18 19 48 97 219 89 310 -14 90 -103 57 -317 -66 -427
-57 -51 -154 -98 -208 -102 -39 -2 -40 -1 -96 83 -134 198 -200 444 -201 740
-1 224 28 386 92 522 20 43 36 78 36 78 0 0 0 -66 0 -148z m-125 -92 c-63
-189 -81 -450 -46 -655 31 -181 105 -371 192 -492 l34 -48 -27 -3 c-16 -2 -53
1 -83 8 -203 44 -355 209 -422 455 -18 67 -21 108 -21 250 -1 176 9 251 54
400 l20 70 68 2 c74 1 145 26 216 73 22 15 41 26 42 26 0 -1 -12 -39 -27 -86z
m569 -1580 l134 -115 -54 -3 c-131 -8 -240 86 -256 221 l-6 51 24 -19 c14 -11
85 -72 158 -135z"/>
<path d="M8935 11920 c10 -11 20 -20 23 -20 3 0 -3 9 -13 20 -10 11 -20 20
-23 20 -3 0 3 -9 13 -20z"/>
<path d="M9480 10733 c0 -5 12 -20 28 -34 l27 -24 -25 30 c-14 17 -26 32 -27
34 -2 2 -3 0 -3 -6z"/>
<path d="M352 4478 c-14 -14 -16 -44 -3 -53 6 -3 10 -506 10 -1313 1 -1252 2
-1308 19 -1332 19 -26 78 -70 93 -70 5 0 9 11 9 24 0 17 -9 27 -29 36 -37 15
-65 70 -56 110 14 64 91 120 165 120 77 0 155 -58 170 -126 15 -67 -5 -124
-77 -221 -36 -48 -76 -110 -90 -138 -14 -27 -36 -59 -48 -71 -52 -48 -58 -249
-12 -383 36 -102 80 -172 167 -264 161 -170 417 -302 686 -353 119 -22 334
-15 449 15 213 56 368 181 426 346 l17 50 177 3 177 2 -6 -26 c-17 -66 -17
-85 -2 -138 33 -111 124 -176 251 -176 158 0 253 97 261 265 l3 70 713 -1
c392 -1 727 -3 743 -5 26 -3 30 -1 33 22 4 31 -19 44 -48 29 -12 -6 -279 -10
-737 -10 l-718 0 -19 46 c-39 95 -173 191 -321 229 -87 23 -263 30 -383 16
-57 -7 -110 -15 -117 -17 -7 -3 -23 17 -40 52 -36 73 -97 135 -164 165 -35 16
-51 29 -48 39 3 8 16 54 30 102 79 265 73 576 -14 774 -100 228 -280 358 -511
371 l-98 6 -55 59 c-52 55 -55 61 -49 97 15 93 -41 219 -122 273 -61 41 -152
61 -234 53 l-68 -7 -144 144 c-157 155 -218 234 -272 349 -47 98 -66 177 -66
269 0 218 122 370 296 370 66 0 109 -21 146 -71 57 -77 14 -189 -73 -189 -35
0 -76 28 -89 60 -11 27 -11 37 3 66 20 42 14 46 -8 4 -22 -42 -19 -66 13 -100
93 -104 238 -4 193 133 -38 114 -167 159 -303 107 -65 -25 -105 -59 -152 -129
l-36 -53 0 151 c0 91 4 160 11 175 19 41 -19 74 -49 44z m163 -1024 c27 -38
108 -129 180 -202 l130 -132 -47 -30 c-142 -92 -230 -268 -231 -460 -2 -258
128 -451 463 -688 248 -176 341 -266 406 -394 73 -143 69 -380 -8 -531 -81
-160 -269 -239 -453 -192 -136 36 -231 113 -288 233 -30 63 -32 74 -32 182 0
98 3 122 22 163 36 78 79 124 146 157 130 64 241 48 336 -48 62 -62 81 -107
81 -186 0 -62 -19 -104 -67 -147 -75 -68 -171 -73 -243 -13 -76 64 -30 193 64
182 19 -2 32 0 30 4 -8 12 -60 10 -89 -4 -54 -24 -72 -115 -36 -174 28 -46
100 -78 161 -71 88 11 163 64 194 139 9 21 16 66 16 100 0 238 -287 378 -499
244 -86 -55 -153 -161 -171 -272 l-9 -59 6 65 c3 36 5 82 4 103 -1 47 38 126
107 220 59 79 75 120 74 192 0 62 -18 101 -66 143 -74 65 -180 68 -270 7 l-36
-24 0 857 0 857 38 -76 c21 -42 60 -107 87 -145z m588 -368 c90 -33 157 -123
157 -215 l0 -43 -77 69 c-43 37 -109 95 -148 128 -38 32 -74 62 -79 67 -16 13
106 8 147 -6z m-19 -188 c77 -68 144 -131 150 -140 8 -13 6 -24 -10 -45 -83
-110 -250 -103 -283 13 -12 45 5 91 40 110 37 19 70 12 100 -19 l21 -22 -11
22 c-27 53 -98 59 -142 12 -54 -58 -32 -166 42 -205 78 -40 211 -9 261 61 l24
35 33 -34 32 -33 -63 -23 c-158 -57 -254 -166 -278 -315 -31 -191 88 -354 258
-355 102 0 163 51 161 135 l-2 40 -6 -47 c-16 -110 -130 -149 -256 -88 -123
60 -158 234 -77 383 53 99 176 185 288 204 30 5 34 1 87 -78 66 -100 86 -140
122 -239 95 -264 111 -607 39 -901 -13 -56 -33 -114 -44 -129 -11 -15 -24 -38
-29 -51 -7 -17 -8 5 -4 66 14 230 -75 420 -274 585 -43 36 -139 108 -213 160
-81 57 -174 133 -231 191 -82 82 -104 110 -143 190 -35 71 -49 114 -58 176
-29 200 54 394 211 494 l44 28 36 -29 c20 -16 99 -84 175 -152z m519 -313
c164 -43 298 -169 370 -348 77 -193 79 -484 5 -741 l-23 -79 -75 -3 c-66 -3
-86 -9 -163 -48 -62 -31 -86 -39 -81 -28 22 53 56 188 69 277 48 326 -26 687
-189 921 l-45 64 37 0 c21 0 64 -7 95 -15z m314 -1246 c-10 -39 -88 -165 -142
-228 -84 -100 -204 -195 -222 -177 -5 4 -8 49 -8 99 1 104 18 156 75 220 60
69 143 102 264 106 34 1 38 -1 33 -20z m163 -48 c19 -15 50 -52 68 -82 29 -49
31 -55 15 -61 -10 -3 -70 -23 -133 -42 -112 -36 -273 -108 -397 -180 -87 -51
-88 -27 -1 30 103 66 222 191 287 302 l54 91 36 -15 c20 -8 52 -27 71 -43z
m714 -185 c103 -35 179 -86 222 -150 19 -28 34 -54 34 -58 0 -5 -25 -8 -56 -8
-46 0 -61 5 -92 29 -75 59 -170 59 -244 1 l-37 -30 -180 0 -180 0 0 100 c0 55
-3 105 -6 110 -16 26 93 39 290 36 155 -2 177 -5 249 -30z m-1277 -28 c-2 -18
0 -60 5 -93 6 -33 11 -66 11 -72 0 -7 4 -13 9 -13 13 0 9 -28 -4 -34 -8 -3 -7
-5 2 -3 8 1 35 -20 60 -47 25 -27 68 -60 95 -72 96 -45 222 -22 265 48 27 45
25 59 -3 18 -35 -53 -81 -75 -157 -75 -53 0 -74 5 -112 27 -41 25 -108 92
-108 109 0 18 406 179 541 214 76 20 79 17 79 -80 0 -119 3 -115 -110 -115
-69 0 -100 4 -103 13 -3 6 -6 -1 -6 -18 l-1 -30 91 3 c50 2 96 -1 100 -5 17
-17 -49 -128 -109 -185 -67 -64 -149 -108 -259 -140 -68 -20 -101 -23 -253
-23 -161 0 -183 2 -275 28 -110 31 -272 104 -362 164 -67 44 -170 138 -216
197 -31 40 -31 40 26 -11 154 -139 381 -173 556 -84 92 47 180 152 217 259 21
60 28 66 21 20z m1351 -155 c17 -8 32 -19 32 -24 0 -5 -53 -9 -117 -9 -107 0
-116 1 -102 16 24 24 91 44 124 38 17 -4 45 -13 63 -21z m62 -88 c12 -34 -8
-83 -40 -100 -40 -21 -72 -19 -106 6 l-29 21 28 -26 c42 -38 89 -36 133 8 28
28 34 42 34 75 l0 41 55 0 54 0 7 -36 c9 -49 -11 -141 -41 -184 -41 -60 -97
-85 -185 -85 -64 0 -82 4 -122 28 -67 39 -103 102 -103 183 0 93 2 94 167 91
131 -2 141 -3 148 -22z"/>
<path d="M1391 2163 c7 -12 15 -20 18 -17 3 2 -3 12 -13 22 -17 16 -18 16 -5
-5z"/>
<path d="M10532 4478 c-15 -15 -16 -40 -2 -54 7 -7 9 -69 8 -165 l-3 -154 -22
41 c-31 58 -114 129 -174 149 -34 12 -73 16 -119 13 -58 -3 -75 -8 -107 -34
-100 -80 -98 -218 2 -260 55 -22 125 9 146 65 13 32 -6 88 -34 102 -21 11 -21
10 2 -15 35 -38 32 -82 -7 -118 -95 -84 -212 44 -139 153 12 18 38 44 57 57
31 21 44 23 106 20 110 -7 186 -59 238 -164 37 -73 50 -146 43 -239 -15 -199
-105 -354 -339 -586 l-138 -137 -92 2 c-111 1 -175 -18 -237 -70 -64 -55 -94
-123 -97 -216 l-2 -77 -52 -59 -52 -59 -96 -6 c-163 -9 -282 -65 -391 -183
-71 -77 -120 -169 -157 -289 -26 -84 -28 -102 -28 -280 -1 -203 9 -277 60
-433 14 -41 23 -76 22 -77 -2 -1 -23 -11 -48 -22 -68 -31 -124 -85 -161 -158
-19 -36 -39 -63 -46 -61 -6 3 -58 10 -115 17 -123 14 -296 7 -388 -17 -146
-37 -263 -119 -314 -221 l-26 -53 -715 0 c-526 0 -721 3 -740 12 -21 9 -29 9
-42 -4 -30 -31 11 -73 48 -50 14 9 208 12 729 12 l710 0 0 -58 c0 -92 24 -157
78 -211 54 -54 101 -71 193 -71 105 1 188 50 229 137 19 40 22 60 18 126 l-5
77 170 -2 c139 -3 171 -6 177 -18 5 -8 23 -46 41 -85 47 -101 131 -181 251
-239 122 -58 211 -78 383 -83 160 -6 279 13 430 68 356 129 604 367 660 634
26 125 12 254 -34 309 -14 17 -36 51 -49 76 -12 25 -47 79 -78 119 -68 91 -83
119 -90 175 -8 57 23 127 70 155 72 45 174 35 233 -24 28 -28 33 -40 33 -80 0
-38 -5 -52 -29 -76 -16 -16 -37 -29 -45 -29 -17 0 -18 -5 -8 -32 7 -17 9 -17
42 0 19 9 45 32 57 51 l23 34 1 1041 c0 573 0 1156 -1 1297 -1 180 2 263 11
282 19 41 -18 76 -49 45z m8 -1663 l0 -854 -52 32 c-44 28 -60 32 -118 32 -57
0 -74 -4 -115 -30 -118 -73 -122 -222 -10 -360 60 -73 104 -166 104 -215 -1
-25 2 -83 4 -130 l6 -85 -9 72 c-20 182 -115 305 -268 349 -229 67 -461 -142
-398 -358 25 -88 107 -155 202 -166 59 -6 107 13 148 59 30 33 36 46 36 85 0
39 -5 51 -34 80 -41 41 -90 46 -127 13 l-24 -21 25 16 c56 36 122 11 141 -53
17 -56 -10 -108 -71 -139 -121 -62 -273 42 -273 187 0 245 308 357 490 179 23
-22 54 -68 70 -102 25 -55 28 -71 28 -166 -1 -85 -5 -116 -23 -160 -45 -112
-130 -194 -250 -241 -45 -18 -77 -23 -157 -23 -89 -1 -107 2 -162 28 -73 33
-149 108 -185 182 -43 85 -53 140 -53 279 1 153 17 208 91 318 62 91 141 161
341 303 289 206 417 357 467 551 20 77 21 221 1 298 -33 131 -115 251 -213
314 l-49 31 122 123 c142 143 208 227 267 343 24 46 44 84 46 84 1 0 2 -385 2
-855z m-570 281 c0 -3 -46 -44 -102 -92 -57 -48 -124 -108 -150 -132 -26 -25
-51 -43 -54 -39 -13 13 17 123 44 161 33 47 65 72 118 91 36 13 144 21 144 11z
m198 -100 c167 -159 196 -437 67 -650 -74 -123 -175 -219 -385 -366 -264 -185
-372 -305 -432 -479 -20 -56 -23 -86 -23 -201 l0 -135 -32 67 c-68 137 -98
332 -90 577 10 303 79 531 222 730 36 50 40 53 73 47 57 -9 159 -62 210 -110
70 -65 104 -139 110 -236 3 -47 0 -92 -8 -115 -38 -114 -194 -187 -296 -139
-35 17 -49 35 -65 83 -8 22 -8 20 -4 -8 10 -66 64 -101 152 -101 112 0 213 74
248 180 27 82 18 207 -22 285 -50 97 -148 176 -266 215 l-39 12 33 34 32 34
24 -35 c67 -99 254 -105 313 -10 50 81 3 185 -83 185 -26 0 -77 -34 -77 -52 0
-6 8 -1 18 11 9 11 31 24 49 27 27 5 37 1 63 -24 60 -61 27 -159 -62 -183 -73
-19 -164 16 -200 78 l-17 30 57 55 c31 30 115 105 186 167 l128 111 37 -21
c20 -12 55 -41 79 -63z m-718 -401 c0 -3 -16 -27 -35 -54 -90 -126 -170 -344
-196 -538 -25 -187 1 -457 60 -625 11 -32 16 -58 11 -58 -5 0 -12 5 -16 11 -4
7 -40 27 -81 46 -57 26 -90 35 -145 37 -83 4 -75 -5 -113 142 -36 141 -50 312
-36 441 35 313 184 520 421 588 45 13 130 20 130 10z m-268 -1257 c65 -19 130
-77 167 -151 30 -58 35 -78 35 -140 1 -40 -5 -91 -13 -114 -8 -24 -15 -43 -16
-43 0 0 -52 29 -114 64 -134 77 -251 127 -375 162 -50 14 -97 27 -104 29 -18
6 27 91 70 131 28 27 106 74 122 74 3 0 19 -26 35 -58 40 -78 109 -168 184
-238 64 -60 175 -140 183 -131 2 2 -14 16 -37 32 -59 39 -168 150 -216 220
-46 68 -103 168 -103 180 0 10 132 -2 182 -17z m-541 -213 l25 -7 0 -114 -1
-114 -181 0 c-153 0 -184 2 -195 16 -25 30 -93 57 -144 57 -54 0 -98 -18 -129
-52 -15 -17 -31 -21 -78 -21 -32 0 -58 4 -58 8 0 22 64 105 102 133 117 86
223 110 458 104 96 -2 187 -7 201 -10z m834 -160 c16 -28 50 -70 75 -95 168
-163 458 -159 651 9 l54 46 -33 -42 c-138 -176 -412 -327 -678 -373 -91 -16
-327 -8 -409 14 -97 26 -216 90 -274 146 -46 46 -111 151 -111 180 0 7 32 10
92 8 92 -3 93 -3 107 -33 20 -45 42 -66 86 -86 95 -44 215 -12 294 77 24 27
48 48 53 46 5 -1 7 2 3 8 -3 5 1 33 10 62 8 28 15 81 15 117 l1 66 17 -50 c10
-28 30 -73 47 -100z m-554 85 c64 -21 187 -69 272 -106 l156 -67 -17 -30 c-41
-71 -152 -125 -234 -114 -119 16 -187 130 -127 213 l21 29 -26 -28 c-14 -15
-26 -35 -26 -43 0 -22 -195 -21 -204 2 -8 22 -8 179 1 188 10 9 49 0 184 -44z
m-699 -126 c55 -28 41 -34 -81 -34 -67 0 -121 2 -121 5 0 10 52 38 83 45 38 8
81 2 119 -16z m-242 -99 c0 -70 43 -115 108 -115 30 0 82 33 82 52 0 6 -9 0
-19 -13 -25 -31 -98 -34 -129 -5 -24 21 -36 66 -27 95 6 19 15 20 153 18 l147
-2 13 -40 c32 -95 -35 -216 -140 -251 -152 -50 -293 41 -305 200 -8 91 -4 96
62 96 l55 0 0 -35z"/>
<path d="M9534 2168 l-19 -23 23 19 c21 18 27 26 19 26 -2 0 -12 -10 -23 -22z"/>
<path d="M9511 2124 c0 -11 3 -14 6 -6 3 7 2 16 -1 19 -3 4 -6 -2 -5 -13z"/>
</g>
</svg>
